<?xml version="1.0" encoding="UTF-8"?>
<svg width="300px" height="85px" viewBox="0 0 300 85" version="1.1" xmlns="http://www.w3.org/2000/svg" xmlns:xlink="http://www.w3.org/1999/xlink">
    <!-- Generator: Sketch 46.2 (44496) - http://www.bohemiancoding.com/sketch -->
    <title>Logo_white</title>
    <desc>Created with Sketch.</desc>
    <defs>
        <polygon id="path-1" points="0 85 300 85 300 0.111842105 0 0.111842105"></polygon>
    </defs>
    <g id="Desktop" stroke="none" stroke-width="1" fill="none" fill-rule="evenodd">
        <g id="Desktop-HD" transform="translate(-90.000000, -7.000000)">
            <g id="menu_white">
                <g id="Logo_white" transform="translate(90.000000, 7.000000)">
                    <polygon id="Fill-1" fill="#FFFFFF" points="52 25 77 25 77 29.4029509 56.8755656 29.4029509 56.8755656 40.3504316 74.581448 40.3504316 74.581448 44.6369801 56.8755656 44.6369801 56.8755656 61 52 61"></polygon>
                    <polygon id="Fill-2" fill="#FFFFFF" points="79 25 104.657296 25 104.657296 29.4029509 83.6647613 29.4029509 83.6647613 40.3504316 103.051359 40.3504316 103.051359 44.5194475 83.6647613 44.5194475 83.6647613 56.7145817 105 56.7145817 105 61 79 61"></polygon>
                    <g id="Group-16">
                        <path d="M106.999254,24.7364539 L113.945149,24.7364539 L124.211194,54.8510592 L134.4,24.7364539 L141.268657,24.7364539 L141.268657,60.3637566 L136.638806,60.3637566 L136.638806,39.3497434 C136.638806,38.6171776 136.638806,37.4215855 136.676866,35.7260592 C136.714925,34.0294145 136.714925,32.2555987 136.714925,30.3274408 L126.526119,60.3637566 L121.741791,60.3637566 L111.475746,30.3274408 L111.475746,31.4067171 C111.475746,32.293625 111.513806,33.6044145 111.552985,35.3782303 C111.592164,37.1520461 111.630224,38.4628355 111.630224,39.3117171 L111.630224,60.3257303 L106.999254,60.3257303 L106.999254,24.7364539 Z" id="Fill-3" fill="#FFFFFF"></path>
                        <mask id="mask-2" fill="white">
                            <use xlink:href="#path-1"></use>
                        </mask>
                        <g id="Clip-6"></g>
                        <polygon id="Fill-5" fill="#FFFFFF" mask="url(#mask-2)" points="144.511567 60.3634211 149.374254 60.3634211 149.374254 24.7361184 144.511567 24.7361184"></polygon>
                        <path d="M177.70097,27.3194474 C180.170373,29.7106316 181.521493,32.4093816 181.791269,35.4168158 L177.08306,35.4168158 C176.542388,33.1039211 175.500224,31.2909605 173.956567,29.9421447 C172.374851,28.5922105 170.174104,27.9368158 167.357687,27.9368158 C163.922239,27.9368158 161.105821,29.1704342 158.982313,31.6376711 C156.861045,34.1060263 155.818881,37.8851711 155.818881,42.9751053 C155.818881,47.1389868 156.782687,50.5322763 158.674478,53.1147105 C160.604328,55.6993816 163.459925,57.0101711 167.241269,57.0101711 C170.753955,57.0101711 173.417015,55.6602368 175.230448,52.9223421 C176.195373,51.4963553 176.928582,49.6062237 177.392015,47.2541842 L182.100224,47.2541842 C181.67597,50.9941842 180.324851,54.1570789 177.970746,56.7014868 C175.154328,59.7480658 171.409925,61.2903684 166.663657,61.2903684 C162.572239,61.2903684 159.13791,60.0176053 156.359552,57.5112237 C152.692388,54.1951053 150.878955,49.0671447 150.878955,42.16425 C150.878955,36.9210921 152.268134,32.6028684 155.008433,29.2476053 C157.980448,25.5847763 162.070746,23.7729342 167.319627,23.7729342 C171.75694,23.7729342 175.230448,24.9674079 177.70097,27.3194474" id="Fill-7" fill="#FFFFFF" mask="url(#mask-2)"></path>
                        <path d="M199.505261,41.0469474 C201.704888,41.0469474 203.442201,40.5839211 204.714963,39.6970132 C205.988843,38.8101053 206.644813,37.1526053 206.644813,34.8005658 C206.644813,32.2550395 205.757127,30.5203684 203.943694,29.5943158 C202.978769,29.0932632 201.704888,28.86175 200.083993,28.86175 L188.621306,28.86175 L188.621306,41.0469474 L199.505261,41.0469474 Z M183.836978,24.7370132 L200.044813,24.7370132 C202.707873,24.7370132 204.9075,25.12175 206.644813,25.9314868 C209.925784,27.4357632 211.584739,30.2508289 211.584739,34.3375395 C211.584739,36.4580658 211.160485,38.2318816 210.272799,39.5806974 C209.385112,40.9306316 208.15041,42.0490526 206.567575,42.8587895 C207.956754,43.4370132 208.998918,44.1695789 209.694067,45.0956316 C210.388097,46.0205658 210.773172,47.5248421 210.85153,49.5681974 L211.004888,54.3494474 C211.045187,55.6993816 211.160485,56.7014868 211.353022,57.3960263 C211.660858,58.5133289 212.16347,59.2458947 212.896679,59.5937237 L212.896679,60.4034605 L206.991828,60.4034605 C206.83847,60.0947763 206.682873,59.7089211 206.606754,59.2078684 C206.490336,58.7068158 206.413097,57.7807632 206.375037,56.3928026 L206.066082,50.4551053 C205.950784,48.1410921 205.101157,46.5607632 203.5575,45.7890526 C202.669813,45.3651711 201.242575,45.1336579 199.350784,45.1336579 L188.660485,45.1336579 L188.660485,60.4034605 L183.836978,60.4034605 L183.836978,24.7370132 Z" id="Fill-8" fill="#FFFFFF" mask="url(#mask-2)"></path>
                        <path d="M239.526045,52.5369342 C241.415597,49.4903553 242.381642,45.9818684 242.381642,42.0103553 C242.381642,37.8084474 241.301418,34.4531842 239.100672,31.8696316 C236.901045,29.2860789 233.89097,28.0524605 230.109627,28.0524605 C226.403284,28.0524605 223.394328,29.3252237 221.079403,31.8696316 C218.762239,34.4140395 217.566716,38.1551579 217.566716,43.09075 C217.566716,47.0231184 218.569701,50.3772632 220.576791,53.0771316 C222.582761,55.7758816 225.825672,57.1258158 230.302164,57.1258158 C234.54694,57.1258158 237.595075,55.5835132 239.526045,52.5369342 M243.770821,29.8262763 C246.124925,32.9880526 247.321567,36.9975921 247.321567,41.9331842 C247.321567,47.2546316 245.970448,51.6891711 243.269328,55.1976579 C240.104776,59.3235132 235.589104,61.4060132 229.684254,61.4060132 C224.203657,61.4060132 219.881642,59.5930526 216.756269,55.96825 C213.938731,52.4597632 212.548433,48.0643684 212.548433,42.7429211 C212.548433,37.9236447 213.746194,33.7977895 216.138358,30.3653553 C219.225672,25.9699605 223.780522,23.7722632 229.800672,23.7722632 C236.091716,23.7722632 240.760746,25.7775921 243.770821,29.8262763" id="Fill-9" fill="#FFFFFF" mask="url(#mask-2)"></path>
                        <path d="M272.136381,29.8261645 C271.055037,29.3251118 269.627799,29.0555724 267.775187,29.0555724 L264.378918,29.0555724 L264.378918,41.4320197 L267.775187,41.4320197 C269.936754,41.4320197 271.672948,40.9689934 273.024067,40.0440592 C274.374067,39.119125 275.031157,37.4996513 275.031157,35.1476118 C275.031157,32.5249145 274.066231,30.7522171 272.136381,29.8261645 L272.136381,29.8261645 Z M259.477052,24.8905724 L269.318843,24.8905724 C272.484515,24.8905724 275.031157,25.7774803 276.999067,27.5893224 C278.927799,29.3631382 279.931903,31.9086645 279.931903,35.1476118 C279.931903,37.9235329 279.044216,40.3527434 277.346082,42.434125 C275.609888,44.516625 272.946828,45.5198487 269.358022,45.5198487 L264.378918,45.5198487 L264.378918,60.6341908 L259.517351,60.6341908 L259.517351,24.8905724 L259.477052,24.8905724 Z" id="Fill-10" fill="#FFFFFF" mask="url(#mask-2)"></path>
                        <polygon id="Fill-11" fill="#FFFFFF" mask="url(#mask-2)" points="282.286343 24.8904605 299.652761 24.8904605 299.652761 29.2858553 287.032612 29.2858553 287.032612 40.1211184 298.030746 40.1211184 298.030746 44.2469737 286.994552 44.2469737 286.994552 56.3538816 299.999776 56.3538816 299.999776 60.5960526 282.286343 60.5960526"></polygon>
                        <path d="M40.5259701,79.4456974 C40.1767164,79.3372105 31.8774627,76.7145132 23.4416418,70.9546447 C12.1591791,63.2498421 6.195,53.6012237 6.195,43.0511579 C6.195,32.5111579 12.1535821,22.6925395 23.4270896,14.6589211 C31.8573134,8.65076316 40.1520896,5.78201316 40.5013433,5.66346053 L41.1248507,7.48760526 C41.0420149,7.51556579 32.7136567,10.3999737 24.5084328,16.2549079 C13.636791,24.0156316 8.12485075,33.0312237 8.12485075,43.0511579 C8.12485075,67.0513553 40.7711194,77.503 41.1002239,77.6047763 L40.5259701,79.4456974 Z" id="Fill-12" fill="#FFFFFF" mask="url(#mask-2)"></path>
                        <path d="M0.654850746,79.4456974 L0.0805970149,77.6047763 C0.164552239,77.5790526 8.48955224,74.9451711 16.6880597,69.3362895 C27.5485075,61.9066184 33.0548507,53.0643816 33.0548507,43.0511579 C33.0548507,33.0312237 27.5440299,24.0156316 16.6723881,16.2549079 C8.46828358,10.3999737 0.13880597,7.51556579 0.0559701493,7.48760526 L0.679477612,5.66346053 C1.02873134,5.78201316 9.32350746,8.65076316 17.7537313,14.6589211 C29.0272388,22.6925395 34.9858209,32.5111579 34.9858209,43.0511579 C34.9858209,53.6012237 29.0216418,63.2498421 17.7391791,70.9546447 C9.30335821,76.7145132 1.00410448,79.3372105 0.654850746,79.4456974" id="Fill-13" fill="#FFFFFF" mask="url(#mask-2)"></path>
                        <path d="M20.6292537,12.6696974 L20.0930597,12.3129211 C20.0281343,12.2693026 19.9508955,12.2145 19.8736567,12.1585789 C19.8154478,12.1171974 19.7572388,12.0758158 19.7079851,12.0422632 C10.6900746,5.63482895 1.8691791,2.62627632 1.78746269,2.60167105 L1.74716418,2.58825 L0.203507463,2.04805263 L0.840447761,0.228381579 L2.38522388,0.768578947 L2.38410448,0.768578947 C3.06246269,1.00009211 11.7803731,4.08469737 20.6292537,10.3321974 C29.5587313,3.99410526 38.2206716,0.987789474 38.8755224,0.767460526 L40.766194,0.112065789 L41.3997761,1.93285526 L39.468806,2.60167105 C39.388209,2.62739474 30.5124627,5.64825 21.5762687,12.0254868 C21.4990299,12.0769342 21.4408209,12.1183158 21.3814925,12.1608158 C21.3053731,12.2156184 21.2292537,12.2693026 21.1654478,12.3129211 L20.6292537,12.6696974 Z M20.591194,26.5571316 C15.774403,31.7309474 13.3341045,37.2760789 13.3341045,43.0516053 C13.3341045,48.8517368 15.7889552,54.3163421 20.6292537,59.3067368 C25.4180597,54.3621974 27.8460448,48.8987105 27.8460448,43.0516053 C27.8460448,37.2760789 25.4068657,31.7309474 20.591194,26.5571316 L20.591194,26.5571316 Z M20.6292537,62.0211447 L19.9531343,61.3623947 C14.2811194,55.8139079 11.4053731,49.6536447 11.4053731,43.0516053 C11.4053731,36.4842368 14.263209,30.2378553 19.9016418,24.4858158 L20.591194,23.7834474 L21.2796269,24.4858158 C26.9169403,30.2378553 29.7758955,36.4842368 29.7758955,43.0516053 C29.7758955,49.7039737 26.9247761,55.8653553 21.3042537,61.3623947 L20.6292537,62.0211447 Z M0.708358209,73.9133158 L0.027761194,72.1093026 C2.70537313,71.1004868 6.67029851,69.4083158 10.8176866,66.9421974 C4.40574627,59.8827237 1.02402985,51.6600921 1.02402985,43.09075 C1.02402985,34.4934474 4.47067164,26.1019342 11.0091045,18.7561447 C6.78783582,16.0641053 2.73559701,14.1851579 -0.000223880597,13.0577895 L0.736343284,11.2750263 C3.75425373,12.5198289 8.33485075,14.6548947 13.0195522,17.7641053 L13.9676866,18.3926579 L13.1919403,19.2236447 C6.49343284,26.4050263 2.9538806,34.6578553 2.9538806,43.09075 C2.9538806,51.5102237 6.43746269,59.5997632 13.0285075,66.4847632 L13.8501493,67.3425921 L12.8415672,67.9689079 C8.20276119,70.8521974 3.68261194,72.7926579 0.708358209,73.9133158 L0.708358209,73.9133158 Z M40.4337313,73.9133158 C37.4930597,72.8060789 33.0076119,70.8689737 28.3352239,67.9275263 L27.335597,67.2989737 L28.1527612,66.4456184 C34.7426866,59.5606184 38.2273881,51.4710789 38.2273881,43.0516053 C38.2273881,34.5672632 34.6889552,26.3289737 27.9926866,19.2281184 L27.2079851,18.3960132 L28.1617164,17.7641053 C32.8464179,14.6548947 37.4270149,12.5198289 40.4449254,11.2750263 L41.1803731,13.0577895 C38.446791,14.1840395 34.396791,16.0629868 30.1766418,18.7527895 C36.710597,26.0247632 40.1561194,34.4039737 40.1561194,43.0516053 C40.1561194,51.6231842 36.7732836,59.8480526 30.3579851,66.9086447 C34.7729104,69.5648947 38.938209,71.2906184 41.1143284,72.1093026 L40.4337313,73.9133158 Z M40.8781343,85.0002237 L38.9863433,84.422 C38.9012687,84.3962763 29.7702985,81.5543684 20.591194,75.3281184 C11.4109701,81.5543684 2.2788806,84.3962763 2.18932836,84.4231184 L0.736343284,84.8816711 L0.154253731,83.0429868 L1.62179104,82.5810789 C1.72029851,82.5497632 10.6173134,79.7816711 19.5837313,73.6795658 L19.6956716,73.6146974 C19.7729104,73.5766711 19.9005224,73.4816053 20.0113433,73.3977237 L20.591194,72.9637763 L21.168806,73.3977237 C21.2236567,73.4379868 21.2785075,73.4715395 21.3333582,73.5062105 C21.4273881,73.56325 21.5191791,73.6225263 21.613209,73.69075 C30.5751493,79.7850263 39.4598507,82.5497632 39.5471642,82.5766053 L41.4434328,83.1559474 L40.8781343,85.0002237 Z" id="Fill-14" fill="#AAADAF" mask="url(#mask-2)"></path>
                        <polygon id="Fill-15" fill="#AAADAF" mask="url(#mask-2)" points="251.64291 61.4057895 253.572761 61.4057895 253.572761 23.7731579 251.64291 23.7731579"></polygon>
                    </g>
                </g>
            </g>
        </g>
    </g>
</svg>