<?xml version="1.0" encoding="UTF-8"?>
<svg width="40px" height="34px" viewBox="0 0 40 34" version="1.1" xmlns="http://www.w3.org/2000/svg" xmlns:xlink="http://www.w3.org/1999/xlink">
    <!-- Generator: Sketch 46.2 (44496) - http://www.bohemiancoding.com/sketch -->
    <title>mangue_simbol</title>
    <desc>Created with Sketch.</desc>
    <defs>
        <polygon id="path-1" points="3.65925698 6.5 0.15451875 6.5 0.15451875 0.172875 3.65925698 0.172875 3.65925698 6.5"></polygon>
        <polygon id="path-3" points="3.94099687 6.5 0.436821046 6.5 0.436821046 0.172625 3.94099687 0.172625 3.94099687 6.5"></polygon>
        <polygon id="path-5" points="9.96171875 0.0429839593 9.96171875 17.2130918 0.563393779 17.2130918 0.563393779 0.0429839593 9.96171875 0.0429839593"></polygon>
    </defs>
    <g id="Desktop" stroke="none" stroke-width="1" fill="none" fill-rule="evenodd">
        <g id="Desktop-HD" transform="translate(-1260.000000, -2877.000000)">
            <g id="mangue" transform="translate(1130.000000, 2877.000000)">
                <g id="mangue_simbol" transform="translate(130.000000, 0.000000)">
                    <g id="Group-3" transform="translate(29.468750, 27.457000)">
                        <mask id="mask-2" fill="white">
                            <use xlink:href="#path-1"></use>
                        </mask>
                        <g id="Clip-2"></g>
                        <path d="M2.3211125,0.235375 C2.31470625,0.231625 2.30958125,0.227875 2.303175,0.225375 C2.241675,0.191625 2.169925,0.172875 2.09433125,0.172875 C1.93289375,0.172875 1.79195625,0.259125 1.71764375,0.386625 C1.7112375,0.397875 1.7061125,0.407875 1.7009875,0.419125 C1.3063625,1.159125 0.81308125,1.834125 0.23908125,2.431625 C0.23395625,2.436625 0.22883125,2.442875 0.22370625,2.447875 C0.18014375,2.496625 0.15451875,2.559125 0.15451875,2.629125 C0.15451875,2.709125 0.19039375,2.781625 0.2454875,2.831625 C0.253175,2.837875 0.2608625,2.844125 0.26855,2.850375 C0.42614375,2.979125 0.570925,3.131625 0.69264375,3.305375 L1.03601875,3.790375 C1.5831125,4.561625 1.903425,5.419125 2.00976875,6.286625 C2.0418,6.546625 2.41720625,6.579125 2.50305,6.330375 L2.8746125,5.247875 L3.51908125,3.366625 C3.84451875,2.414125 3.5869875,1.395375 2.9156125,0.700375 C2.74264375,0.521625 2.54533125,0.364125 2.3211125,0.235375" id="Fill-1" fill="#FFFFFF" mask="url(#mask-2)"></path>
                    </g>
                    <path d="M38.2537687,15.410875 C37.4901437,16.305875 36.4958937,17.040875 35.3107375,17.519625 L34.5688937,17.819625 C34.2537062,17.947125 33.9308312,18.019625 33.6092375,18.044625 C33.3273625,18.065875 33.10955,18.298375 33.0877687,18.573375 L32.8699563,21.218375 C32.82255,21.805875 33.2620187,22.325875 33.862925,22.389625 C33.9846437,22.403375 34.1063625,22.409625 34.2268,22.410875 C34.4612687,22.412125 34.6918937,22.390875 34.9161125,22.350875 C36.1320187,22.133375 37.16855,21.318375 37.6336437,20.172125 C37.6887375,20.033375 37.7399875,19.893375 37.778425,19.747125 L38.5048937,16.974625 L38.8380187,15.708375 C38.926425,15.370875 38.4831125,15.142125 38.2537687,15.410875" id="Fill-4" fill="#FFFFFF"></path>
                    <path d="M33.8080875,23.34175 C33.703025,23.303 33.5966813,23.268 33.4864938,23.2405 C33.313525,23.19675 33.1328688,23.2005 32.9804,23.2505 C32.9586187,23.258 32.9394,23.26425 32.9227438,23.2705 C32.8958375,23.27925 32.8714937,23.2905 32.84715,23.303 C32.8228062,23.3155 32.80615,23.3255 32.7946187,23.33675 C32.7254312,23.388 32.6729,23.45925 32.6459937,23.5405 L32.637025,23.56925 L31.8452125,26.23425 C31.8285562,26.29175 31.8131812,26.3255 31.806775,26.363 C31.806775,26.36425 31.8054937,26.3655 31.8054937,26.368 C31.8042125,26.37425 31.8029312,26.3805 31.8029312,26.38675 C31.80165,26.3905 31.80165,26.39675 31.80165,26.403 C31.8003687,26.4055 31.8003687,26.408 31.8003687,26.4105 L31.8003687,26.4205 L31.8003687,26.43175 L31.8003687,26.43675 C31.806775,26.53425 31.86315,26.618 31.9477125,26.66175 C31.9566812,26.6655 31.9643687,26.6705 31.9720562,26.67425 C32.206525,26.78675 32.4281813,26.93425 32.6293375,27.118 L33.0854625,27.538 L33.1315875,27.5805 C33.93365,28.3155 34.502525,29.2005 34.8369313,30.1455 C34.9368688,30.42925 35.3648063,30.37925 35.3981188,30.0805 L35.5877438,28.4255 L35.7555875,26.96675 L35.8068375,26.52425 C35.9669938,25.12925 35.127775,23.82675 33.8080875,23.34175" id="Fill-6" fill="#FFFFFF"></path>
                    <g id="Group-10" transform="translate(5.125000, 27.457000)">
                        <mask id="mask-4" fill="white">
                            <use xlink:href="#path-3"></use>
                        </mask>
                        <g id="Clip-9"></g>
                        <path d="M3.85643438,2.431375 C3.28371562,1.833875 2.78915312,1.158875 2.39580937,0.420125 C2.39068437,0.407625 2.38555938,0.397625 2.37915312,0.386375 C2.30484062,0.258875 2.16390313,0.172625 2.00246562,0.172625 C1.92559063,0.172625 1.85512187,0.191375 1.79362187,0.225125 C1.78721562,0.227625 1.78209062,0.231375 1.77568437,0.235125 C1.55146563,0.363875 1.35287188,0.522625 1.17990312,0.700125 C0.508528125,1.396375 0.252278125,2.413875 0.576434375,3.366375 L1.22218437,5.246375 L1.59374687,6.330125 C1.67959062,6.578875 2.05499687,6.546375 2.08574688,6.286375 C2.19337187,5.420125 2.51368437,4.561375 3.06077812,3.790125 L3.40287187,3.305125 C3.52587187,3.132625 3.66937187,2.978875 3.82824687,2.850125 L3.85002813,2.831375 C3.90640312,2.781375 3.94099687,2.708875 3.94099687,2.628875 C3.94099687,2.560125 3.91537187,2.496375 3.87309062,2.447625 C3.86796563,2.442625 3.86284063,2.436375 3.85643438,2.431375" id="Fill-8" fill="#FFFFFF" mask="url(#mask-4)"></path>
                    </g>
                    <path d="M4.24926562,22.084375 C4.43376562,22.096875 4.61954687,22.094375 4.80917187,22.073125 C5.32807812,22.018125 5.70732812,21.570625 5.66504687,21.061875 L5.47798437,18.776875 C5.45748437,18.539375 5.27042187,18.339375 5.02570312,18.320625 C4.75023437,18.299375 4.47092187,18.236875 4.19929687,18.126875 L3.55739062,17.866875 C2.53367187,17.454375 1.67523437,16.819375 1.01667187,16.046875 C0.818078125,15.813125 0.433703125,16.011875 0.510578125,16.303125 L0.725828125,17.123125 L1.42667187,19.790625 C1.47151562,19.960625 1.53173437,20.123125 1.60220312,20.278125 C2.01476562,21.181875 2.85014062,21.826875 3.82773437,22.025625 C3.96482812,22.054375 4.10704687,22.074375 4.24926562,22.084375" id="Fill-11" fill="#FFFFFF"></path>
                    <path d="M6.06108125,27.118625 C6.2622375,26.934875 6.48389375,26.786125 6.7183625,26.674875 C6.72605,26.671125 6.7337375,26.666125 6.74270625,26.662375 C6.8259875,26.618625 6.884925,26.533625 6.88876875,26.436125 C6.89005,26.433625 6.89005,26.432375 6.89005,26.431125 L6.89005,26.419875 C6.89005,26.416125 6.89005,26.413625 6.88876875,26.411125 L6.88876875,26.403625 C6.88876875,26.397375 6.88876875,26.391125 6.88876875,26.386125 C6.8874875,26.379875 6.8874875,26.373625 6.88620625,26.367375 C6.884925,26.364875 6.884925,26.363625 6.884925,26.363625 C6.8772375,26.324875 6.8618625,26.292375 6.843925,26.234875 L6.0521125,23.568625 L6.044425,23.541125 C6.01751875,23.458625 5.9649875,23.388625 5.8958,23.337375 C5.8829875,23.326125 5.8676125,23.314875 5.84326875,23.302375 C5.82020625,23.289875 5.79458125,23.279875 5.767675,23.271125 C5.75101875,23.263625 5.73051875,23.257375 5.71001875,23.249875 C5.55755,23.199875 5.37689375,23.196125 5.20264375,23.239875 C5.09245625,23.268625 4.98483125,23.303625 4.88105,23.342375 C3.56264375,23.827375 2.72470625,25.129875 2.8848625,26.523625 L2.93483125,26.966125 L3.10139375,28.424875 L3.2923,30.079875 C3.3256125,30.378625 3.75355,30.428625 3.8534875,30.146125 C4.18789375,29.201125 4.75676875,28.316125 5.55883125,27.579875 L5.60495625,27.538625 L6.06108125,27.118625 Z" id="Fill-13" fill="#FFFFFF"></path>
                    <path d="M29.5077,9.997 C29.8536375,10.80825 30.8056063,11.19325 31.6371375,10.857 C31.8690438,10.76325 32.065075,10.622 32.2226688,10.45075 C32.6301063,10.01075 32.7672,9.3645 32.5186375,8.7795 L30.209825,3.3445 C30.0842625,3.04825 29.8767,2.8095 29.625575,2.642 C29.1861063,2.3495 28.6095438,2.27075 28.0816688,2.4845 C27.2501375,2.82075 26.8555125,3.75075 27.1988875,4.56075 L29.5077,9.997 Z" id="Fill-15" fill="#FFFFFF"></path>
                    <g id="Group-19" transform="translate(29.468750, 0.207000)">
                        <mask id="mask-6" fill="white">
                            <use xlink:href="#path-5"></use>
                        </mask>
                        <g id="Clip-18"></g>
                        <path d="M9.40680938,7.4255 L6.97884063,1.70925 C6.43687188,0.43175 5.00571563,-0.22075 3.67577813,0.143 C3.56943438,0.17175 3.46565313,0.2055 3.36187188,0.248 C3.02874688,0.38175 2.73918438,0.57425 2.49446563,0.80425 C1.70393438,1.553 1.41693438,2.723 1.86280938,3.77675 L3.80005938,8.3355 C4.16009063,9.1855 3.96662188,10.123 3.38365313,10.77175 C3.14918438,11.033 2.85449688,11.248 2.50343438,11.38925 C0.900590625,12.03675 0.139528125,13.82925 0.803215625,15.39425 C0.918528125,15.66425 1.07099688,15.90675 1.25037188,16.123 C1.37721563,16.2755 1.51815313,16.413 1.67062188,16.53675 C2.50471563,17.208 3.68218438,17.4205 4.75074688,16.988 L5.47080938,16.698 C7.43880938,15.90175 8.85971563,14.3605 9.52980938,12.548 C10.1230281,10.94175 10.1281531,9.1255 9.40680938,7.4255" id="Fill-17" fill="#FFFFFF" mask="url(#mask-6)"></path>
                    </g>
                    <path d="M3.87898437,17.337125 L4.49910937,17.587125 C5.61123437,18.037125 6.85660937,17.678375 7.55873437,16.793375 C7.68045312,16.640875 7.78423437,16.474625 7.86879687,16.292125 C7.88289062,16.264625 7.89826562,16.238375 7.90979687,16.210875 C8.48379687,14.859625 7.82523437,13.309625 6.44148437,12.750875 C5.82007812,12.499625 5.39342187,11.988375 5.23454687,11.398375 C5.12307812,10.987125 5.14101562,10.538375 5.32167187,10.113375 L6.99370312,6.175875 C7.49851562,4.985875 6.91939062,3.620875 5.69964062,3.128375 C5.29604687,2.964625 4.87451562,2.919625 4.47220312,2.972125 C4.44145312,2.975875 4.41198437,2.980875 4.38379687,2.985875 C3.59967187,3.115875 2.90139062,3.620875 2.57467187,4.390875 L0.479828125,9.327125 C-0.001921875,10.462125 -0.106984375,11.655875 0.104421875,12.779625 C0.478546875,14.754625 1.83539062,16.510875 3.87898437,17.337125" id="Fill-20" fill="#FFFFFF"></path>
                    <path d="M23.2516125,14.7175 C23.3079875,14.7275 23.3656437,14.73375 23.4258625,14.73375 C23.9844875,14.73375 24.43805,14.29125 24.43805,13.74625 L24.43805,10.22875 C24.43805,9.68375 23.9844875,9.24125 23.4258625,9.24125 C22.8659562,9.24125 22.413675,9.68375 22.413675,10.22875 L22.413675,12.07375 L22.413675,13.74625 C22.413675,14.2325 22.7762687,14.63875 23.2516125,14.7175" id="Fill-22" fill="#FFFFFF"></path>
                    <path d="M31.7774344,22.609375 C32.3527156,20.670625 31.8004969,18.734375 30.5640906,17.375625 C30.3193719,17.106875 30.0503094,16.859375 29.7569031,16.641875 C28.8113406,15.935625 27.6236219,15.508125 26.3077781,15.508125 L23.4211219,15.508125 L22.6510906,15.508125 L16.0385594,15.508125 L15.2672469,15.508125 L12.3882781,15.508125 C11.0724344,15.508125 9.88343437,15.935625 8.93787187,16.643125 C8.63549687,16.866875 8.36130937,17.120625 8.11274687,17.396875 C6.89043437,18.755625 6.34590312,20.681875 6.91990312,22.609375 L7.93209062,26.018125 C8.97759062,29.535625 12.2793719,31.956875 16.0347156,31.956875 L18.6625594,31.956875 L20.0258094,31.956875 L22.6626219,31.956875 C26.4166844,31.956875 29.7197469,29.535625 30.7652469,26.018125 L31.7774344,22.609375 Z" id="Fill-24" fill="#FFFFFF"></path>
                    <path d="M15.2750625,14.733375 C15.3301562,14.733375 15.3839687,14.727125 15.4365,14.719625 C15.91825,14.644625 16.2885312,14.238375 16.2885312,13.745875 L16.2885312,12.043375 L16.2885312,11.504625 C16.2885312,10.958375 15.8349687,10.517125 15.2750625,10.517125 C14.7164375,10.517125 14.262875,10.958375 14.262875,11.504625 L14.262875,13.745875 C14.262875,14.290875 14.7164375,14.733375 15.2750625,14.733375" id="Fill-26" fill="#FFFFFF"></path>
                    <path d="M5.8671,10.954 C5.9081,11.4515 6.22585,11.909 6.7306625,12.11275 C7.4481625,12.40275 8.27200625,12.0715 8.56925625,11.37025 L10.5628812,6.674 C10.8601312,5.97525 10.5206,5.1715 9.80181875,4.8815 C9.60450625,4.80025 9.398225,4.77025 9.19835,4.779 C8.670475,4.804 8.178475,5.1165 7.963225,5.62275 L5.9696,10.319 C5.88119375,10.5265 5.8491625,10.744 5.8671,10.954" id="Fill-28" fill="#FFFFFF"></path>
                </g>
            </g>
        </g>
    </g>
</svg>